<svg id="圖層_1" data-name="圖層 1" xmlns="http://www.w3.org/2000/svg" viewBox="0 0 782 430"><defs><style>.cls-1,.cls-2,.cls-3{fill:#4d2679;}.cls-1{opacity:0.5;}.cls-3{font-size:21px;font-family:HanWangHeiLight;}.cls-4{font-size:36px;fill:#fff;font-family:TA-hougan_k500-90ms-RKSJ-H, TA-hougan_k500;}</style></defs><title>map</title><polygon class="cls-1" points="250.5 209.5 364.5 209.5 363.5 215.5 355.5 215.5 359.5 222.5 364.5 231.5 364.5 245.5 357.5 255.5 348.5 263.5 264.5 263.5 253.5 253.5 250.5 244.5 247.5 235.5 251.5 224.5 258.5 216.5 250.5 216.5 250.5 209.5"/><polyline class="cls-1" points="253 163 253 174 390 194 394 159 381 163"/><polygon class="cls-1" points="205 48 205 53 192 53 192 61 189 61 190 85 212 86 214 91 221 91 223 86 241 86 242 78 246 78 246 62 238 61 239 55 228 54 231 47 205 48"/><polygon class="cls-2" points="413 0 412 24 411 35 379 305 378 322 393 323 395 307 426 36 428 0 413 0"/><polygon class="cls-2" points="272 0 271 24 152 22 96 20 92 31 271 36 413 36 414 24 285 24 286 0 272 0"/><polygon class="cls-1" points="281 42 279 128 334 128 335 43 281 42"/><polygon class="cls-1" points="372 54 368 60 371 66 378 66 381 61 379 55 372 54"/><polygon class="cls-1" points="338 75 338 94 341 95 343 102 352 102 351 93 356 92 356 74 338 75"/><polyline class="cls-2" points="92 31 60 196 44 244 33 241 38 225 50 188 79 32 83 14 95 16 94 20 96 20"/><polygon class="cls-2" points="85 1 83 14 95 16 98 0 86 0 85 1"/><polygon class="cls-2" points="1 217 380 305 380 321 377 321 0 232 1 217"/><text class="cls-3" transform="matrix(0.11, -0.99, 0.99, 0.11, 403.83, 404.88)">南門路</text><text class="cls-3" transform="translate(138.97 285.02) rotate(13.05)">府前路一段</text><text class="cls-3" transform="translate(478.17 48.41) rotate(-14.44)">友愛街</text><polygon class="cls-2" points="378 322 364 430 380 430 393 323 380 321 378 322"/><polyline class="cls-2" points="33 241 0 377 1 425 44 244"/><polygon class="cls-2" points="426 36 442 35 590 0 538 0 442 23 423 24 426 36"/><polygon class="cls-2" points="79 32 1 14 1 0 8 0 88 19 79 32"/><text class="cls-3" transform="matrix(0.17, -0.99, 0.99, 0.17, 88.59, 175.04)">忠義路一段</text><text class="cls-3" transform="matrix(0.59, 0.81, -0.81, 0.59, 681.98, 167.68)">開山路</text><text class="cls-3" transform="translate(552.92 165.78) rotate(-6.87)">府中街</text><polyline class="cls-2" points="411 148 674 121 682 124 684 128 682 131 409 163"/><polygon class="cls-2" points="395 307 497 310 555 304 781 307 781 323 555 319 499 326 387.85 322.5 389 309 395 307"/><polygon class="cls-2" points="603 0 674 119 687 139 782 273 781 250 676 102 616 0 603 0"/><text class="cls-3" transform="translate(8.1 37.79) rotate(15.27)">友愛街</text><polygon class="cls-2" points="672.55 121.69 686.42 117.39 782 51 782 64 691 128 672.55 121.69"/><rect class="cls-2" x="420" y="238" width="95" height="56"/><polygon class="cls-2" points="468.85 306.75 484 280.51 453.7 280.51 468.85 306.75"/><text class="cls-4" transform="translate(432.72 280.04)">食門</text><text class="cls-3" transform="translate(596.34 338.77) rotate(0.53)">府前路一段</text></svg>